<?xml version="1.0" encoding="UTF-8"?>
<svg version="1.1" xmlns="http://www.w3.org/2000/svg" width="500" height="500">
<path d="M0 0 C165 0 330 0 500 0 C500 165 500 330 500 500 C335 500 170 500 0 500 C0 335 0 170 0 0 Z " fill="#FEFEFE" transform="translate(0,0)"/>
<path d="M0 0 C4.33320395 -0.08772579 8.66617668 -0.14063579 13 -0.1875 C14.22074219 -0.21263672 15.44148438 -0.23777344 16.69921875 -0.26367188 C24.51277271 -0.32702502 31.06494171 -0.3478369 37.27734375 4.9375 C37.82519531 5.618125 38.37304688 6.29875 38.9375 7 C39.50339844 7.680625 40.06929687 8.36125 40.65234375 9.0625 C42.9072086 12.30427671 43.15862029 15.09649826 43.1875 18.9375 C43.20167969 19.79214844 43.21585938 20.64679688 43.23046875 21.52734375 C42.98581436 24.15219511 42.24924507 25.71054689 41 28 C41.20923889 31.03396389 42.38252935 32.59118173 44.0625 35.1875 C46.537906 39.43105314 46.81792129 43.19161422 46 48 C44.24863716 53.30091641 41.79110122 56.99163411 37 60 C31.97959003 62.47837233 28.44801336 63.36628343 22.75390625 63.29296875 C22.09792953 63.28872391 21.44195282 63.28447906 20.76609802 63.28010559 C18.69779089 63.26348779 16.63050599 63.22587238 14.5625 63.1875 C13.14910275 63.17243111 11.73569002 63.15874659 10.32226562 63.14648438 C6.88118565 63.11364104 3.44069281 63.06198015 0 63 C0.33 62.01 0.66 61.02 1 60 C1.09328829 58.16006159 1.12792423 56.31691062 1.12939453 54.47460938 C1.13254669 53.34333618 1.13569885 52.21206299 1.13894653 51.04650879 C1.1369223 49.82459839 1.13489807 48.60268799 1.1328125 47.34375 C1.13376923 46.0899353 1.13472595 44.83612061 1.13571167 43.54431152 C1.13639269 40.89132243 1.13504458 38.23842521 1.13037109 35.58544922 C1.12467399 32.18580188 1.12795473 28.78623349 1.13394356 25.38658905 C1.13842693 22.14313987 1.13528742 18.89970021 1.1328125 15.65625 C1.13483673 14.4343396 1.13686096 13.2124292 1.13894653 11.95349121 C1.13579437 10.82221802 1.13264221 9.69094482 1.12939453 8.52539062 C1.12859894 7.5285022 1.12780334 6.53161377 1.12698364 5.5045166 C1.10548123 2.87013736 1.10548123 2.87013736 0 0 Z " fill="#044DAE" transform="translate(90,227)"/>
<path d="M0 0 C2.67049688 0.72780218 4.43799264 1.61642419 6.73608398 3.13525391 C7.50944092 3.64145264 8.28279785 4.14765137 9.07958984 4.66918945 C10.31914429 5.49930542 10.31914429 5.49930542 11.58374023 6.34619141 C12.45329346 6.92087158 13.32284668 7.49555176 14.21875 8.08764648 C17.03487558 9.95527748 19.84133147 11.83676275 22.64624023 13.72119141 C23.59499023 14.35557129 24.54374023 14.98995117 25.52124023 15.64355469 C35.58977151 22.38611903 45.56278615 29.11921353 54.89233398 36.86572266 C58.06192244 39.00126098 60.95881054 39.79285723 64.64624023 40.72119141 C67.58374023 42.34619141 67.58374023 42.34619141 69.64624023 43.72119141 C69.48124023 44.31931641 69.31624023 44.91744141 69.14624023 45.53369141 C68.53482783 47.83463476 68.53482783 47.83463476 68.64624023 50.72119141 C70.95624023 51.38119141 73.26624023 52.04119141 75.64624023 52.72119141 C74.98624023 54.04119141 74.32624023 55.36119141 73.64624023 56.72119141 C68.94440712 55.06919599 68.94440712 55.06919599 67.29077148 53.13916016 C65.71428337 51.49678803 65.71428337 51.49678803 63.33374023 51.54150391 C57.58139378 52.19365946 52.23571769 53.29664031 46.67749023 54.89697266 C27.94810741 59.98962701 8.36039347 60.86976763 -10.95602417 61.07266235 C-12.33706925 61.08824557 -13.71805991 61.10995326 -15.09890747 61.13803101 C-17.04165762 61.17379329 -18.98490257 61.17852579 -20.92797852 61.18212891 C-22.047771 61.19034668 -23.16756348 61.19856445 -24.32128906 61.20703125 C-28.0656998 60.60712968 -29.70761573 59.39807333 -32.35375977 56.72119141 C-33.41625977 53.22119141 -33.41625977 53.22119141 -33.35375977 49.72119141 C-31.30532852 47.00257675 -30.11930847 45.8578123 -26.73381042 45.25363159 C-25.73980728 45.26854645 -24.74580414 45.2834613 -23.72167969 45.29882812 C-22.58917282 45.30558563 -21.45666595 45.31234314 -20.2898407 45.31930542 C-19.06698868 45.34622467 -17.84413666 45.37314392 -16.58422852 45.40087891 C-15.31589676 45.41128204 -14.047565 45.42168518 -12.74079895 45.43240356 C-9.36113538 45.46203234 -5.98255435 45.50778104 -2.60327148 45.56311035 C22.81387051 46.90795193 22.81387051 46.90795193 47.64624023 42.72119141 C49.97923849 42.68164906 52.31332212 42.67717408 54.64624023 42.72119141 C54.64624023 42.06119141 54.64624023 41.40119141 54.64624023 40.72119141 C54.13061523 40.49431641 53.61499023 40.26744141 53.08374023 40.03369141 C50.90984536 38.86313263 49.25422143 37.62306047 47.33374023 36.09619141 C43.75998749 33.47183734 41.09964197 33.1867832 36.64624023 33.72119141 C36.31624023 34.05119141 35.98624023 34.38119141 35.64624023 34.72119141 C32.02933041 35.39300017 30.01131899 34.52431726 27.07202148 32.55322266 C25.69220557 31.55870301 24.32160427 30.55131752 22.95874023 29.53369141 C22.22776123 29.00211426 21.49678223 28.47053711 20.74365234 27.92285156 C19.18501451 26.78848477 17.62985078 25.64933184 16.07788086 24.50585938 C13.59776996 22.68561734 11.10158079 20.88980975 8.59936523 19.10009766 C1.94447199 14.33367544 1.94447199 14.33367544 -0.81860352 12.33837891 C-1.45403076 11.88060059 -2.08945801 11.42282227 -2.74414062 10.95117188 C-4.35375977 9.72119141 -4.35375977 9.72119141 -6.35375977 7.72119141 C-6.14001367 4.94249212 -5.65272236 3.1696353 -4.10375977 0.84619141 C-2.35375977 -0.27880859 -2.35375977 -0.27880859 0 0 Z " fill="#303433" transform="translate(172.353759765625,158.27880859375)"/>
<path d="M0 0 C2 3 2 3 2.03125 5.37109375 C0.54139987 9.16908291 -2.24043993 10.8449002 -5.5 13.0625 C-6.15911377 13.52785156 -6.81822754 13.99320313 -7.49731445 14.47265625 C-8.91269243 15.46983554 -10.33254798 16.4606836 -11.75634766 17.44580078 C-14.83298684 19.57701787 -17.88395605 21.74384396 -20.9375 23.90795898 C-23.7307805 25.88441104 -26.52930573 27.85307939 -29.34204102 29.80175781 C-31.1283884 31.04794936 -31.1283884 31.04794936 -33.1015625 32.890625 C-35.94683481 34.55329441 -38.00046861 33.81353721 -41.1875 33.25 C-45.12813665 32.81067226 -47.25211762 32.60189969 -50.78125 34.48046875 C-53.18749464 36.38694881 -53.18749464 36.38694881 -55.29296875 38.43359375 C-57 40 -57 40 -59 40 C-59 40.66 -59 41.32 -59 42 C-57.205625 42.185625 -57.205625 42.185625 -55.375 42.375 C-52.53866243 42.68128923 -49.73297865 43.04299683 -46.91590881 43.49661255 C-38.42263613 44.86034472 -30.27232067 45.21510694 -21.68359375 45.0546875 C-19.69735432 45.03587065 -17.71111435 45.01707701 -15.7248621 44.99966621 C-10.89728758 44.95422097 -6.07007073 44.88590159 -1.24291992 44.80810547 C1.49315786 44.76486546 4.22897973 44.73236859 6.96531677 44.71121216 C9.52529525 44.69059108 12.08520748 44.65355675 14.64466858 44.59811401 C15.80034836 44.59135651 16.95602814 44.584599 18.14672852 44.57763672 C19.66557396 44.55526443 19.66557396 44.55526443 21.21510315 44.53244019 C24.80193428 45.13463775 26.47532062 46.42065601 29 49 C29.1875 52.5 29.1875 52.5 28 56 C22.91078545 60.54798062 18.64998735 60.52860779 12.1875 60.3125 C11.2195752 60.29195557 10.25165039 60.27141113 9.25439453 60.25024414 C7.1988333 60.20265103 5.14346349 60.14605032 3.08837891 60.08105469 C0.14365175 60.00377015 -2.7927392 59.99670677 -5.73828125 60.0078125 C-21.21349865 59.90793892 -35.84928697 57.22060496 -50.93344116 54.05360413 C-60.39305902 52.01120815 -60.39305902 52.01120815 -70 51 C-72.29215045 52.79191032 -72.29215045 52.79191032 -74 55 C-76.75 55.75 -76.75 55.75 -79 56 C-79.33 54.68 -79.66 53.36 -80 52 C-77.69 51.34 -75.38 50.68 -73 50 C-72.83746012 47.12036571 -72.83746012 47.12036571 -73.6875 45 C-74 43 -74 43 -73.0625 41.3125 C-71 40 -71 40 -67.3125 39.75 C-62.69147608 39.30038686 -60.75861158 37.32518474 -57.48046875 34.19921875 C-54.42815434 31.49299353 -51.18335098 29.22687654 -47.8125 26.9375 C-47.13799805 26.47899658 -46.46349609 26.02049316 -45.76855469 25.5480957 C-43.5166151 24.02564682 -41.25918406 22.51167694 -39 21 C-38.14519043 20.42733398 -37.29038086 19.85466797 -36.40966797 19.26464844 C-31.90992095 16.25285908 -27.40311692 13.25238296 -22.88671875 10.265625 C-19.95698853 8.32260315 -17.05989716 6.3510008 -14.20703125 4.296875 C-13.16933594 3.55953125 -12.13164062 2.8221875 -11.0625 2.0625 C-9.78052734 1.12083984 -9.78052734 1.12083984 -8.47265625 0.16015625 C-5.20782616 -1.37168346 -3.40338913 -1.06503832 0 0 Z " fill="#303433" transform="translate(332,159)"/>
<path d="M0 0 C3.1875 1.625 3.1875 1.625 5 4 C5.78773146 8.62792232 4.66275012 11.22777066 2 15 C2.78375 15.0825 3.5675 15.165 4.375 15.25 C7 16 7 16 8.3125 18.0625 C8.539375 18.701875 8.76625 19.34125 9 20 C8.01 20 7.02 20 6 20 C6 36.5 6 53 6 70 C7.32 70.33 8.64 70.66 10 71 C9.67 71.99 9.34 72.98 9 74 C6.03 74.495 6.03 74.495 3 75 C3.33 75.86625 3.66 76.7325 4 77.625 C5.03462108 81.11684614 5.62509231 83.40571923 5 87 C1.91217373 89.93343496 -0.79704309 91.26344345 -5 91.5625 C-8.07135334 91.39121299 -10.01334717 90.6872069 -12.5 88.875 C-15 86 -15 86 -15.5625 82.9375 C-14.96438371 79.81400379 -14.13630675 78.31433231 -12 76 C-13.4540625 75.62875 -13.4540625 75.62875 -14.9375 75.25 C-15.948125 74.8375 -16.95875 74.425 -18 74 C-18.875 71.875 -18.875 71.875 -19 70 C-18.01 70 -17.02 70 -16 70 C-16 53.5 -16 37 -16 20 C-16.99 20 -17.98 20 -19 20 C-18.3125 18.0625 -18.3125 18.0625 -17 16 C-14.375 15.25 -14.375 15.25 -12 15 C-12.7425 13.948125 -12.7425 13.948125 -13.5 12.875 C-15.2468968 9.52678113 -15.55466566 7.7241837 -15 4 C-11.88625635 -1.63439327 -5.6542133 -0.81969364 0 0 Z " fill="#6F131A" transform="translate(69,210)"/>
<path d="M0 0 C3.25 2.125 3.25 2.125 5 5 C4.92194093 8.82489443 3.90094917 11.70502143 2 15 C2.61875 15.0825 3.2375 15.165 3.875 15.25 C6 16 6 16 7.25 18.0625 C7.4975 18.701875 7.745 19.34125 8 20 C7.01 20 6.02 20 5 20 C5 36.5 5 53 5 70 C6.32 70 7.64 70 9 70 C8.8125 71.875 8.8125 71.875 8 74 C5.4375 75.25 5.4375 75.25 3 76 C3.144375 76.556875 3.28875 77.11375 3.4375 77.6875 C3.623125 78.450625 3.80875 79.21375 4 80 C4.268125 80.804375 4.53625 81.60875 4.8125 82.4375 C5 85 5 85 3.25 87.75 C0.40157627 90.59842373 -1.33438363 90.937206 -5.3125 91.3125 C-9.7446583 90.93689336 -11.71241526 89.97448143 -15 87 C-16.125 84.0625 -16.125 84.0625 -16 81 C-14.0625 78.125 -14.0625 78.125 -12 76 C-12.78375 75.87625 -13.5675 75.7525 -14.375 75.625 C-17 75 -17 75 -19 73 C-19 72.01 -19 71.02 -19 70 C-18.01 70 -17.02 70 -16 70 C-16 53.5 -16 37 -16 20 C-16.99 20 -17.98 20 -19 20 C-18.67 18.68 -18.34 17.36 -18 16 C-16.02 15.67 -14.04 15.34 -12 15 C-12 14.01 -12 13.02 -12 12 C-12.99 11.67 -13.98 11.34 -15 11 C-15.8125 8.3125 -15.8125 8.3125 -16 5 C-12.23779332 -1.18076812 -6.57584246 -1.22066537 0 0 Z " fill="#1B1314" transform="translate(455,210)"/>
<path d="M0 0 C5.94 0 11.88 0 18 0 C18.350625 1.815 18.70125 3.63 19.0625 5.5 C20.97610197 14.46037321 23.61191837 23.18710097 26.22265625 31.96484375 C28.05486065 38.13342895 29.76669292 44.33202136 31.40185547 50.55566406 C32.28113717 53.81449703 33.10755832 56.16133748 35 59 C35 59.99 35 60.98 35 62 C30.05 62 25.1 62 20 62 C19.51171875 59.4609375 19.0234375 56.921875 18.53515625 54.3828125 C18.10036299 52.00043683 18.10036299 52.00043683 17 50 C11.72 50 6.44 50 1 50 C0.67 51.60875 0.34 53.2175 0 54.875 C-0.185625 55.77992188 -0.37125 56.68484375 -0.5625 57.6171875 C-1.06019595 59.92407903 -1.06019595 59.92407903 -1 62 C-6.28 62 -11.56 62 -17 62 C-16.01 59.03 -16.01 59.03 -15 56 C-14.48505653 54.30370609 -13.97978127 52.60444611 -13.484375 50.90234375 C-13.0661145 49.46773804 -13.0661145 49.46773804 -12.6394043 48.00415039 C-12.34590088 46.99215576 -12.05239746 45.98016113 -11.75 44.9375 C-11.44425049 43.8848999 -11.13850098 42.8322998 -10.82348633 41.74780273 C-10.19163344 39.5700415 -9.5605349 37.39206127 -8.93017578 35.21386719 C-8.3280578 33.13347846 -7.7249336 31.05338059 -7.12060547 28.97363281 C-6.3065276 26.17079147 -5.49637296 23.36684727 -4.6875 20.5625 C-4.44547852 19.73032959 -4.20345703 18.89815918 -3.95410156 18.04077148 C-1.15067937 9.15727122 -1.15067937 9.15727122 0 0 Z " fill="#044DAE" transform="translate(394,227)"/>
<path d="M0 0 C24.51351351 0 24.51351351 0 30.6875 5.3125 C35.07949878 10.4167148 36.61784361 14.65648496 36.42578125 21.328125 C35.67977267 26.00949993 33.66125217 30.10182781 31 34 C30.01 34.66 29.02 35.32 28 36 C29.37798126 39.87644224 31.19239726 42.87896006 33.625 46.1875 C37 50.78163265 37 50.78163265 37 53 C32.38 53 27.76 53 23 53 C21.76302083 50.49348958 20.52604167 47.98697917 19.2890625 45.48046875 C17.98133095 42.85443619 17.98133095 42.85443619 16 40 C15.01 40 14.02 40 13 40 C13 44.29 13 48.58 13 53 C8.71 53 4.42 53 0 53 C0 35.51 0 18.02 0 0 Z " fill="#084FAF" transform="translate(205,124)"/>
<path d="M0 0 C22 0 22 0 28 4 C31.22473316 7.97717089 31.34696601 10.9689929 31 16 C30.773125 17.216875 30.54625 18.43375 30.3125 19.6875 C29.62561953 22.95194915 29.62561953 22.95194915 31.4375 24.875 C33.59416584 27.80806554 33.60258982 30.09777835 33.484375 33.6796875 C32.63614592 37.74297841 30.21859972 40.47957809 27 43 C22 45 22 45 0 45 C0 30.15 0 15.3 0 0 Z " fill="#0950AF" transform="translate(218,232)"/>
<path d="M0 0 C4.29 0 8.58 0 13 0 C13 5.61 13 11.22 13 17 C15.4440625 13.6278125 15.4440625 13.6278125 17.9375 10.1875 C18.45046631 9.48391357 18.96343262 8.78032715 19.49194336 8.05541992 C19.89550049 7.49443604 20.29905762 6.93345215 20.71484375 6.35546875 C21.33540649 5.49924927 21.33540649 5.49924927 21.96850586 4.62573242 C23.18088617 2.85939711 23.18088617 2.85939711 24 0 C28.95 0 33.9 0 39 0 C39 0.66 39 1.32 39 2 C37.83059996 3.1523285 36.65864977 4.30217314 35.47460938 5.43945312 C32.66953567 8.40800132 30.51127747 11.86113134 28.25 15.25 C27.27682946 16.69323985 26.30291104 18.13597579 25.328125 19.578125 C24.69245605 20.52800293 24.69245605 20.52800293 24.04394531 21.49707031 C23 23 23 23 22 24 C21.51177898 26.62174688 21.64969746 28.37992222 22.97070312 30.71826172 C24.34454222 32.67075024 25.77743114 34.55838223 27.25 36.4375 C28.23553783 37.72697667 29.21992945 39.01733026 30.203125 40.30859375 C30.67943359 40.92718262 31.15574219 41.54577148 31.64648438 42.18310547 C32.91609318 43.8873675 34.08486271 45.62350705 35.234375 47.41015625 C36.74267391 50.07429912 36.74267391 50.07429912 39 51 C39 51.66 39 52.32 39 53 C34.05 53 29.1 53 24 53 C23.01 51.02 22.02 49.04 21 47 C19.6439588 45.01390524 18.24788361 43.05453207 16.8125 41.125 C15.554375 39.43375 14.29625 37.7425 13 36 C13 41.61 13 47.22 13 53 C8.71 53 4.42 53 0 53 C0 35.51 0 18.02 0 0 Z " fill="#054EAE" transform="translate(256,124)"/>
<path d="M0 0 C19 0 19 0 25 3 C29.63816504 8.13958829 30.33761281 11.30785229 30.29296875 18.09375 C29.84851627 22.50271863 28.35219878 25.26415487 26 29 C25.34 29.33 24.68 29.66 24 30 C24.63161239 33.45807781 26.00272986 35.75392417 28 38.625 C30.93913043 42.87826087 30.93913043 42.87826087 32 45 C27.71 45 23.42 45 19 45 C17.828125 42.4609375 16.65625 39.921875 15.484375 37.3828125 C14.0243885 34.57660428 14.0243885 34.57660428 10 33 C10.33 36.96 10.66 40.92 11 45 C7.37 45 3.74 45 0 45 C0 30.15 0 15.3 0 0 Z " fill="#044CAE" transform="translate(325,232)"/>
<path d="M0 0 C19 0 19 0 25 3 C29.63816504 8.13958829 30.33761281 11.30785229 30.29296875 18.09375 C29.84851627 22.50271863 28.35219878 25.26415487 26 29 C25.34 29.33 24.68 29.66 24 30 C24.63161239 33.45807781 26.00272986 35.75392417 28 38.625 C30.93913043 42.87826087 30.93913043 42.87826087 32 45 C27.71 45 23.42 45 19 45 C17.828125 42.4609375 16.65625 39.921875 15.484375 37.3828125 C14.0243885 34.57660428 14.0243885 34.57660428 10 33 C10.33 36.96 10.66 40.92 11 45 C7.37 45 3.74 45 0 45 C0 30.15 0 15.3 0 0 Z " fill="#044CAE" transform="translate(182,232)"/>
<path d="M0 0 C4.29 0 8.58 0 13 0 C13.29390625 1.40572266 13.29390625 1.40572266 13.59375 2.83984375 C16.7270167 17.201102 21.35606889 31.06820668 26 45 C22.04 45 18.08 45 14 45 C13.67 42.03 13.34 39.06 13 36 C6.565 36.495 6.565 36.495 0 37 C-0.33 39.64 -0.66 42.28 -1 45 C-4.96 45 -8.92 45 -13 45 C-12.5771875 43.74703125 -12.154375 42.4940625 -11.71875 41.203125 C-7.20153878 27.64088755 -2.93773632 13.99744953 0 0 Z " fill="#084FAF" transform="translate(297,232)"/>
<path d="M0 0 C4.29 0 8.58 0 13 0 C13.29390625 1.40572266 13.29390625 1.40572266 13.59375 2.83984375 C16.7270167 17.201102 21.35606889 31.06820668 26 45 C22.04 45 18.08 45 14 45 C13.67 42.03 13.34 39.06 13 36 C6.565 36.495 6.565 36.495 0 37 C-0.33 39.64 -0.66 42.28 -1 45 C-4.96 45 -8.92 45 -13 45 C-12.5771875 43.74703125 -12.154375 42.4940625 -11.71875 41.203125 C-7.20153878 27.64088755 -2.93773632 13.99744953 0 0 Z " fill="#084FAF" transform="translate(154,232)"/>
<path d="M0 0 C0.33 0 0.66 0 1 0 C1 3.96 1 7.92 1 12 C1.99 12 2.98 12 4 12 C5.02665213 12.97261781 6.02306322 13.97745683 7 15 C8.44936023 15.92353341 9.93148137 16.7970707 11.4375 17.625 C12.19933594 18.05039063 12.96117188 18.47578125 13.74609375 18.9140625 C16.21454809 20.19714045 16.21454809 20.19714045 20 21 C20 25.95 20 30.9 20 36 C10.5 33.25 10.5 33.25 6 31 C6 35.29 6 39.58 6 44 C8.03460769 45.01428514 10.07804606 46.01086789 12.125 47 C13.26195313 47.556875 14.39890625 48.11375 15.5703125 48.6875 C19.01319533 50.00504969 21.35669762 50.26577282 25 50 C25 51.32 25 52.64 25 54 C22.03 54.495 22.03 54.495 19 55 C19.33 55.86625 19.66 56.7325 20 57.625 C21.03462108 61.11684614 21.62509231 63.40571923 21 67 C17.91217373 69.93343496 15.20295691 71.26344345 11 71.5625 C7.92864666 71.39121299 5.98665283 70.6872069 3.5 68.875 C1 66 1 66 0.4375 62.9375 C1.03561629 59.81400379 1.86369325 58.31433231 4 56 C3.030625 55.7525 2.06125 55.505 1.0625 55.25 C-0.4534375 54.63125 -0.4534375 54.63125 -2 54 C-2.875 51.875 -2.875 51.875 -3 50 C-2.01 50 -1.02 50 0 50 C0 33.5 0 17 0 0 Z " fill="#656A74" transform="translate(53,230)"/>
<path d="M0 0 C0 3.63 0 7.26 0 11 C-5.94 10.67 -11.88 10.34 -18 10 C-18 12.97 -18 15.94 -18 19 C-15.03 18.67 -12.06 18.34 -9 18 C-9 21.63 -9 25.26 -9 29 C-11.97 28.67 -14.94 28.34 -18 28 C-18 30.97 -18 33.94 -18 37 C-11.73 36.67 -5.46 36.34 1 36 C1 39.63 1 43.26 1 47 C-8.57 46.67 -18.14 46.34 -28 46 C-28 31.15 -28 16.3 -28 1 C-23.75125 0.835 -19.5025 0.67 -15.125 0.5 C-13.11623779 0.42168945 -13.11623779 0.42168945 -11.06689453 0.34179688 C-10.01614746 0.30119141 -8.96540039 0.26058594 -7.8828125 0.21875 C-6.80402832 0.17685547 -5.72524414 0.13496094 -4.61376953 0.09179688 C-3.07648977 0.03780685 -1.53822755 0 0 0 Z " fill="#044CAE" transform="translate(282,231)"/>
<path d="M0 0 C0.90878906 0.48919922 0.90878906 0.48919922 1.8359375 0.98828125 C8.90499025 4.67506414 15.91448667 8 24 8 C23.8125 9.875 23.8125 9.875 23 12 C20.4375 13.25 20.4375 13.25 18 14 C18.144375 14.556875 18.28875 15.11375 18.4375 15.6875 C18.623125 16.450625 18.80875 17.21375 19 18 C19.268125 18.804375 19.53625 19.60875 19.8125 20.4375 C20 23 20 23 18.25 25.75 C15.40157627 28.59842373 13.66561637 28.937206 9.6875 29.3125 C5.2553417 28.93689336 3.28758474 27.97448143 0 25 C-1.125 22.0625 -1.125 22.0625 -1 19 C0.9375 16.125 0.9375 16.125 3 14 C2.21625 13.87625 1.4325 13.7525 0.625 13.625 C-2 13 -2 13 -4 11 C-4 10.01 -4 9.02 -4 8 C-3.01 8 -2.02 8 -1 8 C-0.67 5.36 -0.34 2.72 0 0 Z " fill="#6C6C6D" transform="translate(440,272)"/>
<path d="M0 0 C3.63 0 7.26 0 11 0 C11 14.85 11 29.7 11 45 C7.37 45 3.74 45 0 45 C0 30.15 0 15.3 0 0 Z " fill="#064EAF" transform="translate(361,232)"/>
<path d="M0 0 C0.61746094 0.39832031 1.23492187 0.79664063 1.87109375 1.20703125 C7.47394798 4.71201312 12.65351795 7.15747295 19 9 C19 13.95 19 18.9 19 24 C6.33431715 21.15022136 6.33431715 21.15022136 1.39453125 17.2265625 C-1.68975596 12.30207032 -0.51140253 5.5828109 0 0 Z " fill="#CBCBCB" transform="translate(440,242)"/>
<path d="M0 0 C4.20416324 1.59417125 7.94305346 3.61665341 11.81640625 5.87890625 C14.21443941 7.21464195 14.21443941 7.21464195 18 8 C18 12.95 18 17.9 18 23 C14.59846143 22.10237177 11.32329835 21.13444037 8 20 C7.19304688 19.74089844 6.38609375 19.48179687 5.5546875 19.21484375 C2.95641689 18.06471321 1.66288919 17.33077091 0 15 C-0.68417586 9.91212082 -0.46182282 5.09929367 0 0 Z " fill="#CDCDCD" transform="translate(55,243)"/>
<path d="M0 0 C0.46148437 0.31453125 0.92296875 0.6290625 1.3984375 0.953125 C6.08277282 4.02664145 10.74747514 6.2479144 15.99609375 8.203125 C18 9 18 9 19 10 C19.07244053 12.01964199 19.08377188 14.04167124 19.0625 16.0625 C19.05347656 17.16722656 19.04445313 18.27195312 19.03515625 19.41015625 C19.02355469 20.26480469 19.01195312 21.11945313 19 22 C12.05280356 21.66918112 6.59917097 20.32435973 1 16 C-0.14077657 12.57767028 -0.09815117 9.91326783 -0.0625 6.3125 C-0.05347656 5.13300781 -0.04445313 3.95351563 -0.03515625 2.73828125 C-0.02355469 1.83464844 -0.01195312 0.93101562 0 0 Z " fill="#093475" transform="translate(440,257)"/>
<path d="M0 0 C5.61098356 -0.86322824 8.50302821 1.33377839 12.8515625 4.4921875 C15.21882407 6.23254087 15.21882407 6.23254087 19 8 C19 11.96 19 15.92 19 20 C14.81485404 19.16297081 12.9071919 18.57578089 9.4375 16.5 C6.27252338 14.61207825 6.27252338 14.61207825 2.78515625 13.53125 C1.90150391 13.26828125 1.90150391 13.26828125 1 13 C-0.00496852 9.98509443 -0.10335303 7.95818308 -0.0625 4.8125 C-0.05347656 3.91144531 -0.04445313 3.01039063 -0.03515625 2.08203125 C-0.02355469 1.39496094 -0.01195312 0.70789063 0 0 Z " fill="#AE1119" transform="translate(440,230)"/>
<path d="M0 0 C3.25 2.125 3.25 2.125 5 5 C4.8125 8.3125 4.8125 8.3125 4 11 C-2.8152287 13.65960145 -8.1847713 13.65960145 -15 11 C-15.8125 8.3125 -15.8125 8.3125 -16 5 C-12.23779332 -1.18076812 -6.57584246 -1.22066537 0 0 Z " fill="#6F6F70" transform="translate(455,210)"/>
<path d="M0 0 C8.14583333 -0.47916667 8.14583333 -0.47916667 11.5625 1.4375 C13.7145847 5.27382489 13.74831272 8.70704811 13 13 C11.5625 15.5625 11.5625 15.5625 9 17 C5.91796887 17.31297734 3.11460416 17.18321201 0 17 C0 11.39 0 5.78 0 0 Z " fill="#FBFCFD" transform="translate(217,135)"/>
<path d="M0 0 C2.24940295 -0.08119503 4.49964871 -0.13927819 6.75 -0.1875 C8.00296875 -0.22230469 9.2559375 -0.25710938 10.546875 -0.29296875 C14.15901112 0.01349076 15.54141383 0.3892736 18 3 C18.5 6 18.5 6 18 9 C15.54141383 11.6107264 14.15901112 11.98650924 10.546875 12.29296875 C9.29390625 12.25816406 8.0409375 12.22335937 6.75 12.1875 C5.48671875 12.16042969 4.2234375 12.13335937 2.921875 12.10546875 C1.95765625 12.07066406 0.9934375 12.03585937 0 12 C0 8.04 0 4.08 0 0 Z " fill="#FCFCFE" transform="translate(105,265)"/>
<path d="M0 0 C0.04080783 1.99958364 0.04254356 4.00045254 0 6 C-1.98 6.99 -1.98 6.99 -4 8 C-4 8.99 -4 9.98 -4 11 C-4.57621094 10.85304687 -5.15242188 10.70609375 -5.74609375 10.5546875 C-7.17045231 10.20415212 -8.59993829 9.87333357 -10.03515625 9.5703125 C-13.00914624 8.91706614 -15.47828883 8.33199802 -18.0625 6.6875 C-19 5 -19 5 -18.9375 2.5 C-17.75945014 -0.64146628 -16.988088 -1.46764718 -14 -3 C-8.33156854 -4.54162362 -4.37320927 -4.37320927 0 0 Z " fill="#737375" transform="translate(74,214)"/>
<path d="M0 0 C4.95 1.98 9.9 3.96 15 6 C15 10.29 15 14.58 15 19 C9.74576086 17.32819664 4.87138415 15.62305301 0 13 C0 8.71 0 4.42 0 0 Z " fill="#063275" transform="translate(58,260)"/>
<path d="M0 0 C4.25125889 0.03816211 7.18893113 1.18893113 10.25 4.25 C10.5625 7.125 10.5625 7.125 10.25 10.25 C7.99226884 12.53960501 6.67100087 13.20590075 3.453125 13.54296875 C2.47859375 13.50816406 1.5040625 13.47335938 0.5 13.4375 C-0.48484375 13.41042969 -1.4696875 13.38335937 -2.484375 13.35546875 C-3.23203125 13.32066406 -3.9796875 13.28585938 -4.75 13.25 C-4.77686553 11.27090602 -4.79633375 9.29171029 -4.8125 7.3125 C-4.82410156 6.21035156 -4.83570312 5.10820312 -4.84765625 3.97265625 C-4.69711945 -0.22430964 -4.37075956 0.29138397 0 0 Z " fill="#F6F8FC" transform="translate(109.75,238.75)"/>
<path d="M0 0 C1.90368048 2.79953012 1.99184124 4.15773599 1.8125 7.625 C1 11 1 11 -2 13 C-6.68476626 13.75447546 -10.05441901 13.61752228 -14.0625 11 C-14.701875 10.34 -15.34125 9.68 -16 9 C-15.6875 6.625 -15.6875 6.625 -15 4 C-11.72872414 1.81914943 -10.72623277 1.75112141 -6.9375 1.8125 C-5.62072266 1.82216797 -5.62072266 1.82216797 -4.27734375 1.83203125 C-2 2 -2 2 0 3 C0 2.01 0 1.02 0 0 Z " fill="#B2B3B5" transform="translate(71,286)"/>
<path d="M0 0 C0.9590625 -0.00773437 1.918125 -0.01546875 2.90625 -0.0234375 C5.5 0.375 5.5 0.375 7.3203125 1.7421875 C9.00711309 4.07689825 8.92169638 5.56369079 8.5 8.375 C6.83252441 10.61617298 5.9420866 11.29971981 3.16015625 11.7734375 C2.30292969 11.76570313 1.44570313 11.75796875 0.5625 11.75 C-0.71947266 11.76160156 -0.71947266 11.76160156 -2.02734375 11.7734375 C-4.969424 11.29935822 -6.357117 10.42003446 -8.5 8.375 C-8.9375 5.875 -8.9375 5.875 -8.5 3.375 C-6.08806118 0.04763885 -3.97749442 -0.03207657 0 0 Z " fill="#88888A" transform="translate(449.5,287.625)"/>
<path d="M0 0 C0 0.33 0 0.66 0 1 C-0.69867188 1.12117187 -1.39734375 1.24234375 -2.1171875 1.3671875 C-3.48230469 1.61855469 -3.48230469 1.61855469 -4.875 1.875 C-5.77992187 2.03742188 -6.68484375 2.19984375 -7.6171875 2.3671875 C-10.16505988 2.83044703 -10.16505988 2.83044703 -12 5 C-11.90888062 7.53951544 -11.90888062 7.53951544 -11 10 C-7.14916641 12.5672224 -3.68302872 13 1 13 C2.02019573 12.0206121 3.02149805 11.02104551 4 10 C3.67 11.65 3.34 13.3 3 15 C5.475 15.495 5.475 15.495 8 16 C8 16.99 8 17.98 8 19 C-0.58 19 -9.16 19 -18 19 C-17.01 17.68 -16.02 16.36 -15 15 C-13.68 15 -12.36 15 -11 15 C-11.7425 13.948125 -11.7425 13.948125 -12.5 12.875 C-14.2468968 9.52678113 -14.55466566 7.7241837 -14 4 C-10.84046955 -1.45737077 -5.57920241 -0.38330398 0 0 Z " fill="#545455" transform="translate(68,210)"/>
<path d="M0 0 C7.28358209 -0.35820896 7.28358209 -0.35820896 10 1 C11.63278358 4.26556715 11.6227188 7.48305406 11 11 C9.4375 13.5 9.4375 13.5 7 15 C4.69 15 2.38 15 0 15 C0 10.05 0 5.1 0 0 Z " fill="#F9FBFD" transform="translate(335,241)"/>
<path d="M0 0 C7.28358209 -0.35820896 7.28358209 -0.35820896 10 1 C11.63278358 4.26556715 11.6227188 7.48305406 11 11 C9.4375 13.5 9.4375 13.5 7 15 C4.69 15 2.38 15 0 15 C0 10.05 0 5.1 0 0 Z " fill="#F9FBFD" transform="translate(192,241)"/>
<path d="M0 0 C5.66666667 0 11.33333333 0 17 0 C16.67 0.99 16.34 1.98 16 3 C14.68 2.34 13.36 1.68 12 1 C13.63412443 2.70840281 14.86906094 3.93453047 17 5 C16.67 6.65 16.34 8.3 16 10 C10.72 10 5.44 10 0 10 C0 6.7 0 3.4 0 0 Z " fill="#EDEEED" transform="translate(265,292)"/>
<path d="M0 0 C0.103125 0.639375 0.20625 1.27875 0.3125 1.9375 C0.6528125 2.9584375 0.6528125 2.9584375 1 4 C1.99 4.33 2.98 4.66 4 5 C4.33 5.99 4.66 6.98 5 8 C-2.92 8 -10.84 8 -19 8 C-19 7.01 -19 6.02 -19 5 C-17.02 4.67 -15.04 4.34 -13 4 C-13 3.01 -13 2.02 -13 1 C-12.31292969 1.01160156 -11.62585938 1.02320313 -10.91796875 1.03515625 C-10.01691406 1.04417969 -9.11585938 1.05320313 -8.1875 1.0625 C-6.84751953 1.07990234 -6.84751953 1.07990234 -5.48046875 1.09765625 C-2.86586209 1.11009967 -2.86586209 1.11009967 0 0 Z " fill="#59595A" transform="translate(456,221)"/>
<path d="M0 0 C-0.33 0.99 -0.66 1.98 -1 3 C-3 3.66666667 -5 4.33333333 -7 5 C-7.33 5.99 -7.66 6.98 -8 8 C-9.24716797 7.96519531 -9.24716797 7.96519531 -10.51953125 7.9296875 C-11.60621094 7.91164063 -12.69289063 7.89359375 -13.8125 7.875 C-14.89144531 7.85179687 -15.97039063 7.82859375 -17.08203125 7.8046875 C-20.19402868 7.76976283 -20.19402868 7.76976283 -23 10 C-22.72965366 12.43717258 -22.72965366 12.43717258 -22 15 C-18.90219052 17.06520632 -18.0459519 17.29477024 -14.5 17.3125 C-13.33984375 17.33763672 -13.33984375 17.33763672 -12.15625 17.36328125 C-9.48381026 16.91303325 -8.60575142 16.15119714 -7 14 C-6.74930087 11.37429296 -6.74930087 11.37429296 -7 9 C-6.34 9.33 -5.68 9.66 -5 10 C-4.625 12.75 -4.625 12.75 -5 16 C-8.08782627 18.93343496 -10.79704309 20.26344345 -15 20.5625 C-18.07135334 20.39121299 -20.01334717 19.6872069 -22.5 17.875 C-25 15 -25 15 -25.5625 12 C-24.90613035 8.49936189 -24.29544991 6.74465733 -22 4 C-19.02650369 3.34880431 -16.50040898 2.98531154 -13.5 2.8125 C-8.79132676 2.47055128 -4.14880584 0 0 0 Z " fill="#393939" transform="translate(79,281)"/>
<path d="M0 0 C-0.66 0.66 -1.32 1.32 -2 2 C-1.61445282 4.23617366 -0.90498962 6.28503114 -0.1875 8.4375 C0 11 0 11 -1.75 13.75 C-4.59842373 16.59842373 -6.33438363 16.937206 -10.3125 17.3125 C-14.7446583 16.93689336 -16.71241526 15.97448143 -20 13 C-21.0625 9.9375 -21.0625 9.9375 -21 7 C-19.5625 5.3125 -19.5625 5.3125 -18 4 C-18 3.01 -18 2.02 -18 1 C-15.93769732 0.8309093 -13.8751477 0.66482867 -11.8125 0.5 C-10.08966797 0.36078125 -10.08966797 0.36078125 -8.33203125 0.21875 C-5.53927574 0.0354038 -2.79680188 -0.04213637 0 0 Z M-17.81640625 5.3671875 C-19.19032057 7.01140292 -19.19032057 7.01140292 -19.4375 9.5 C-19.23806267 12.09623454 -19.23806267 12.09623454 -17.2890625 13.6328125 C-14.61355056 15.23081451 -13.03175893 15.40300234 -9.9375 15.375 C-8.65166016 15.38660156 -8.65166016 15.38660156 -7.33984375 15.3984375 C-4.5579134 14.92471981 -3.66747559 14.24117298 -2 12 C-1.57830362 9.18869079 -1.49288691 7.70189825 -3.1796875 5.3671875 C-5.67658174 3.49183775 -7.40580481 3.60004681 -10.5 3.625 C-11.4590625 3.61726563 -12.418125 3.60953125 -13.40625 3.6015625 C-16.02507528 3.79451249 -16.02507528 3.79451249 -17.81640625 5.3671875 Z " fill="#39393A" transform="translate(460,284)"/>
<path d="M0 0 C1.60379341 -0.05416188 3.20811406 -0.09286638 4.8125 -0.125 C5.70582031 -0.14820313 6.59914062 -0.17140625 7.51953125 -0.1953125 C10 0 10 0 13 2 C12.25 6.75 12.25 6.75 10 9 C7.6171875 9.1953125 7.6171875 9.1953125 4.875 9.125 C3.50988281 9.09792969 3.50988281 9.09792969 2.1171875 9.0703125 C1.41851562 9.04710937 0.71984375 9.02390625 0 9 C0 6.03 0 3.06 0 0 Z " fill="#F6F8FC" transform="translate(229,259)"/>
<path d="M0 0 C9.46153846 0 9.46153846 0 12 1 C13.8125 3.375 13.8125 3.375 15 6 C14.67 6.99 14.34 7.98 14 9 C13.01 7.68 12.02 6.36 11 5 C11 6.65 11 8.3 11 10 C10.38125 9.814375 9.7625 9.62875 9.125 9.4375 C6.95839822 8.76313824 6.95839822 8.76313824 5 10 C3.00039988 10.039992 0.99952758 10.04346799 -1 10 C-0.67 9.01 -0.34 8.02 0 7 C1.32 7.66 2.64 8.32 4 9 C3.154375 8.2575 2.30875 7.515 1.4375 6.75 C0.633125 5.8425 -0.17125 4.935 -1 4 C-0.8125 1.6875 -0.8125 1.6875 0 0 Z " fill="#E5E5E5" transform="translate(209,292)"/>
<path d="M0 0 C3.96 0 7.92 0 12 0 C12 16.5 12 33 12 50 C11.67 50 11.34 50 11 50 C11 35.81 11 21.62 11 7 C8.525 6.01 8.525 6.01 6 5 C3.95950578 3.7295036 1.94982535 2.40568804 0 1 C0 0.67 0 0.34 0 0 Z " fill="#606060" transform="translate(63,230)"/>
<path d="M0 0 C0.66 0 1.32 0 2 0 C2.67220351 1.93558599 3.33758077 3.87354372 4 5.8125 C4.556875 7.43091797 4.556875 7.43091797 5.125 9.08203125 C6 12 6 12 6 15 C2.7 15 -0.6 15 -4 15 C-2.91266548 9.87399439 -1.77362508 4.94081272 0 0 Z " fill="#E4EBF6" transform="translate(402,249)"/>
<path d="M0 0 C1 1 1 1 1.25 3.9375 C1.1675 4.948125 1.085 5.95875 1 7 C-2.45245824 9.30163882 -3.94738713 9.34490322 -8 9 C-8.66 8.34 -9.32 7.68 -10 7 C-9.84006374 3.88124302 -9.39386255 2.42199559 -7.25 0.125 C-4.38460839 -1.30769581 -2.99831117 -0.97242524 0 0 Z " fill="#B6B7BA" transform="translate(65,212)"/>
<path d="M0 0 C3 0.25 3 0.25 5 2.25 C5.25 5.25 5.25 5.25 5 8.25 C3 10.25 3 10.25 0 10.5 C-3 10.25 -3 10.25 -5 8.25 C-5.25 5.25 -5.25 5.25 -5 2.25 C-3 0.25 -3 0.25 0 0 Z " fill="#4B4E4D" transform="translate(236,291.75)"/>
<path d="M0 0 C1.258125 -0.04125 2.51625 -0.0825 3.8125 -0.125 C4.52019531 -0.14820313 5.22789062 -0.17140625 5.95703125 -0.1953125 C8 0 8 0 11 2 C10.6875 4.375 10.6875 4.375 10 7 C6.3558226 9.4294516 4.28758728 9.16179575 0 9 C0 6.03 0 3.06 0 0 Z " fill="#F2F6FB" transform="translate(229,241)"/>
<path d="M0 0 C2 3 2 3 1.8125 5.5625 C1 8 1 8 -2 10 C-5.125 10.1875 -5.125 10.1875 -8 10 C-9 9 -9 9 -9.375 6.125 C-9 3 -9 3 -6.75 1.125 C-4 0 -4 0 0 0 Z " fill="#AEAFB1" transform="translate(450,211)"/>
<path d="M0 0 C6.625 -0.25 6.625 -0.25 10 2 C9.74438677 4.3431213 9.40729228 6.67843403 9 9 C6.04335481 10.4783226 3.25770263 10.06032783 0 10 C0 6.7 0 3.4 0 0 Z " fill="#4C4F4E" transform="translate(254,292)"/>
<path d="M0 0 C1.90368048 2.79953012 1.99184124 4.15773599 1.8125 7.625 C1 11 1 11 -2 13 C-4.26171875 13.1953125 -4.26171875 13.1953125 -6.6875 13.125 C-7.89986328 13.09792969 -7.89986328 13.09792969 -9.13671875 13.0703125 C-10.05904297 13.03550781 -10.05904297 13.03550781 -11 13 C-10.175 12.2575 -9.35 11.515 -8.5 10.75 C-5.55155147 8.12612615 -5.55155147 8.12612615 -6 4 C-6.66 3.34 -7.32 2.68 -8 2 C-2.25 1.875 -2.25 1.875 0 3 C0 2.01 0 1.02 0 0 Z " fill="#838385" transform="translate(71,286)"/>
<path d="M0 0 C0.33 0 0.66 0 1 0 C1 3.96 1 7.92 1 12 C1.99 12.33 2.98 12.66 4 13 C3.34 13 2.68 13 2 13 C2.0721875 13.92039063 2.144375 14.84078125 2.21875 15.7890625 C2.86136833 24.55366251 3.12193395 33.20720747 3 42 C2.34 42 1.68 42 1 42 C0.14324615 36.83279599 -0.13467581 31.89219378 -0.09765625 26.66015625 C-0.0962413 25.89319931 -0.09482635 25.12624237 -0.09336853 24.33604431 C-0.08781766 21.9114881 -0.07527463 19.48702781 -0.0625 17.0625 C-0.05747864 15.40820447 -0.05291685 13.75390747 -0.04882812 12.09960938 C-0.03786438 8.06636988 -0.02063424 4.03320114 0 0 Z " fill="#384558" transform="translate(53,230)"/>
<path d="M0 0 C6.39075249 -0.36174071 6.39075249 -0.36174071 9 1.1875 C10 3 10 3 9.8125 5.5625 C9 8 9 8 7 10 C3.375 10.125 3.375 10.125 0 10 C0 6.7 0 3.4 0 0 Z " fill="#444746" transform="translate(284,292)"/>
<path d="M0 0 C1.670625 0.061875 1.670625 0.061875 3.375 0.125 C4.29554342 3.13768757 4.65361489 4.55229162 3.25 7.4375 C1.375 9.125 1.375 9.125 -1.1875 9.5 C-3.625 9.125 -3.625 9.125 -5.625 7.125 C-5.875 4.625 -5.875 4.625 -5.625 2.125 C-3.625 0.125 -3.625 0.125 0 0 Z " fill="#B5B6B8" transform="translate(446.625,288.875)"/>
<path d="M0 0 C2.5625 0.1875 2.5625 0.1875 4.5625 2.1875 C3.98557692 8.76442308 3.98557692 8.76442308 2.5625 10.1875 C0.125 10.4375 0.125 10.4375 -2.4375 10.1875 C-4.4375 7.1875 -4.4375 7.1875 -4.125 4.0625 C-3.21262777 0.24712521 -3.21262777 0.24712521 0 0 Z " fill="#646767" transform="translate(320.4375,291.8125)"/>
<path d="M0 0 C2.48046875 1.05078125 2.48046875 1.05078125 5 3 C5.48828125 6.35546875 5.48828125 6.35546875 5.3125 10.1875 C5.26738281 11.45980469 5.22226562 12.73210937 5.17578125 14.04296875 C5.11777344 15.01878906 5.05976563 15.99460937 5 17 C1.125 16.125 1.125 16.125 0 15 C-0.07313567 12.46950598 -0.09247527 9.96695163 -0.0625 7.4375 C-0.05798828 6.72658203 -0.05347656 6.01566406 -0.04882812 5.28320312 C-0.03700864 3.52209987 -0.01907263 1.76103964 0 0 Z " fill="#F8F8F8" transform="translate(440,242)"/>
<path d="M0 0 C2.4375 0.1875 2.4375 0.1875 3.4375 1.1875 C3.5703125 3 3.5703125 3 3.5625 5.1875 C3.56507813 5.909375 3.56765625 6.63125 3.5703125 7.375 C3.4375 9.1875 3.4375 9.1875 2.4375 10.1875 C0 10.4375 0 10.4375 -2.5625 10.1875 C-4.71165785 6.96376323 -4.94536803 5.92046326 -4.5625 2.1875 C-2.5625 0.1875 -2.5625 0.1875 0 0 Z " fill="#535756" transform="translate(330.5625,291.8125)"/>
<path d="M0 0 C4 2 4 2 5 4 C5.07065617 6.04055005 5.08421976 8.08334257 5.0625 10.125 C5.05347656 11.22070312 5.04445313 12.31640625 5.03515625 13.4453125 C5.02355469 14.28835938 5.01195312 15.13140625 5 16 C3.35 15.67 1.7 15.34 0 15 C0 10.05 0 5.1 0 0 Z " fill="#F8F8F8" transform="translate(55,243)"/>
<path d="M0 0 C0.65226562 0.33773438 1.30453125 0.67546875 1.9765625 1.0234375 C6.57761806 3.3714688 11.01772085 5.5577613 16 7 C16 7.33 16 7.66 16 8 C10.72 8 5.44 8 0 8 C0 5.36 0 2.72 0 0 Z " fill="#F6F6F6" transform="translate(440,272)"/>
<path d="M0 0 C5.19644079 1.59890486 10.06612142 3.74138003 15 6 C15 6.33 15 6.66 15 7 C10.05 7 5.1 7 0 7 C0 4.69 0 2.38 0 0 Z " fill="#C3C3C3" transform="translate(55,273)"/>
<path d="M0 0 C1.65 0 3.3 0 5 0 C5 3.96 5 7.92 5 12 C4.01 12.33 3.02 12.66 2 13 C-0.20914 9.68629 -0.22481553 8.6553979 -0.125 4.8125 C-0.10695312 3.91144531 -0.08890625 3.01039063 -0.0703125 2.08203125 C-0.04710937 1.39496094 -0.02390625 0.70789063 0 0 Z " fill="#D22932" transform="translate(55,231)"/>
<path d="M0 0 C0 0.66 0 1.32 0 2 C1.32 2.33 2.64 2.66 4 3 C3.34 4.65 2.68 6.3 2 8 C0.02 8 -1.96 8 -4 8 C-4.66 6.02 -5.32 4.04 -6 2 C-2.25 0 -2.25 0 0 0 Z " fill="#393C3B" transform="translate(357,293)"/>
<path d="M0 0 C2.475 0.99 2.475 0.99 5 2 C5 5 5 5 4 8 C2.02 8 0.04 8 -2 8 C-2.33 6.02 -2.66 4.04 -3 2 C-2.01 2 -1.02 2 0 2 C0 1.34 0 0.68 0 0 Z " fill="#343837" transform="translate(143,293)"/>
<path d="M0 0 C2.42130331 2.42130331 2.52840504 3.80111377 3.125 7.125 C3.29257812 8.03507813 3.46015625 8.94515625 3.6328125 9.8828125 C3.81457031 10.93082031 3.81457031 10.93082031 4 12 C1.69 12 -0.62 12 -3 12 C-2.68950274 10.56206608 -2.3765224 9.1246682 -2.0625 7.6875 C-1.88847656 6.88699219 -1.71445312 6.08648437 -1.53515625 5.26171875 C-1 3 -1 3 0 0 Z " fill="#DAE5F3" transform="translate(303,247)"/>
<path d="M0 0 C2.42130331 2.42130331 2.52840504 3.80111377 3.125 7.125 C3.29257813 8.03507813 3.46015625 8.94515625 3.6328125 9.8828125 C3.81457031 10.93082031 3.81457031 10.93082031 4 12 C1.69 12 -0.62 12 -3 12 C-2.68950274 10.56206608 -2.3765224 9.1246682 -2.0625 7.6875 C-1.88847656 6.88699219 -1.71445313 6.08648437 -1.53515625 5.26171875 C-1 3 -1 3 0 0 Z " fill="#DAE5F3" transform="translate(160,247)"/>
<path d="M0 0 C0.94875 0.04125 1.8975 0.0825 2.875 0.125 C3.205 1.115 3.535 2.105 3.875 3.125 C0.905 2.63 0.905 2.63 -2.125 2.125 C-2.125 3.775 -2.125 5.425 -2.125 7.125 C-0.805 7.785 0.515 8.445 1.875 9.125 C1.545 7.805 1.215 6.485 0.875 5.125 C2.195 5.455 3.515 5.785 4.875 6.125 C4.545 7.445 4.215 8.765 3.875 10.125 C0.5 10.25 0.5 10.25 -3.125 10.125 C-5.125 8.125 -5.125 8.125 -5.375 5.125 C-5.02345647 0.90647769 -4.22997422 0.16919897 0 0 Z " fill="#505352" transform="translate(197.125,291.875)"/>
<path d="M0 0 C1.32 0 2.64 0 4 0 C4 3.63 4 7.26 4 11 C3.01 11.33 2.02 11.66 1 12 C0.03929566 9.11788698 -0.10581883 7.30149956 -0.0625 4.3125 C-0.05347656 3.50425781 -0.04445313 2.69601563 -0.03515625 1.86328125 C-0.02355469 1.24839844 -0.01195312 0.63351563 0 0 Z " fill="#D4373F" transform="translate(441,232)"/>
<path d="M0 0 C0.66 0 1.32 0 2 0 C3.32 3.3 4.64 6.6 6 10 C5.01 10 4.02 10 3 10 C3 9.01 3 8.02 3 7 C2.401875 7.33 1.80375 7.66 1.1875 8 C-1 9 -1 9 -4 9 C-2.68 6.03 -1.36 3.06 0 0 Z " fill="#5C5F5F" transform="translate(184,292)"/>
<path d="M0 0 C1.65 0 3.3 0 5 0 C5.33 1.32 5.66 2.64 6 4 C4.68 4.99 3.36 5.98 2 7 C3.32 7.33 4.64 7.66 6 8 C6 8.66 6 9.32 6 10 C3.36 10 0.72 10 -2 10 C0.625 5.125 0.625 5.125 4 4 C4 3.01 4 2.02 4 1 C3.01 1 2.02 1 1 1 C1 1.99 1 2.98 1 4 C0.34 4 -0.32 4 -1 4 C-0.67 2.68 -0.34 1.36 0 0 Z " fill="#525555" transform="translate(309,292)"/>
<path d="M0 0 C2.015625 1.08203125 2.015625 1.08203125 4 3 C4.171875 6.13671875 4.171875 6.13671875 3.75 9.6875 C3.62109375 10.86699219 3.4921875 12.04648437 3.359375 13.26171875 C3.24078125 14.16535156 3.1221875 15.06898438 3 16 C1 15 1 15 0 13 C-0.07092842 10.7927077 -0.08415025 8.58332548 -0.0625 6.375 C-0.05347656 5.18648438 -0.04445313 3.99796875 -0.03515625 2.7734375 C-0.02355469 1.85820312 -0.01195312 0.94296875 0 0 Z " fill="#395F98" transform="translate(440,257)"/>
<path d="M0 0 C1.98 0 3.96 0 6 0 C5.67 0.99 5.34 1.98 5 3 C3.68 2.34 2.36 1.68 1 1 C2.63412443 2.70840281 3.86906094 3.93453047 6 5 C5.67 6.65 5.34 8.3 5 10 C3.02 10 1.04 10 -1 10 C-0.67 9.01 -0.34 8.02 0 7 C1.32 7.66 2.64 8.32 4 9 C3.154375 8.2575 2.30875 7.515 1.4375 6.75 C0.633125 5.8425 -0.17125 4.935 -1 4 C-0.8125 1.6875 -0.8125 1.6875 0 0 Z " fill="#4E5150" transform="translate(276,292)"/>
<path d="M0 0 C2.64 0 5.28 0 8 0 C7.67 0.66 7.34 1.32 7 2 C5.68 1.67 4.36 1.34 3 1 C3 1.99 3 2.98 3 4 C4.32 4 5.64 4 7 4 C7 4.66 7 5.32 7 6 C5.68 6 4.36 6 3 6 C3 6.99 3 7.98 3 9 C4.65 9 6.3 9 8 9 C8 9.33 8 9.66 8 10 C5.36 10 2.72 10 0 10 C0 6.7 0 3.4 0 0 Z " fill="#4D504F" transform="translate(265,292)"/>
<path d="M0 0 C1.98 0 3.96 0 6 0 C5.67 0.99 5.34 1.98 5 3 C3.68 2.34 2.36 1.68 1 1 C2.63412443 2.70840281 3.86906094 3.93453047 6 5 C5.67 6.65 5.34 8.3 5 10 C3.02 10 1.04 10 -1 10 C-0.67 9.01 -0.34 8.02 0 7 C1.32 7.66 2.64 8.32 4 9 C3.154375 8.2575 2.30875 7.515 1.4375 6.75 C0.633125 5.8425 -0.17125 4.935 -1 4 C-0.8125 1.6875 -0.8125 1.6875 0 0 Z " fill="#4E5150" transform="translate(209,292)"/>
<path d="M0 0 C1.98 0 3.96 0 6 0 C5.67 0.99 5.34 1.98 5 3 C3.68 2.34 2.36 1.68 1 1 C2.63412443 2.70840281 3.86906094 3.93453047 6 5 C5.67 6.65 5.34 8.3 5 10 C3.02 10 1.04 10 -1 10 C-0.67 9.01 -0.34 8.02 0 7 C1.32 7.66 2.64 8.32 4 9 C3.154375 8.2575 2.30875 7.515 1.4375 6.75 C0.633125 5.8425 -0.17125 4.935 -1 4 C-0.8125 1.6875 -0.8125 1.6875 0 0 Z " fill="#4E5150" transform="translate(172,292)"/>
<path d="M0 0 C2.64 0 5.28 0 8 0 C7.67 0.66 7.34 1.32 7 2 C5.68 1.67 4.36 1.34 3 1 C3 1.99 3 2.98 3 4 C4.32 4 5.64 4 7 4 C7 4.66 7 5.32 7 6 C5.68 6 4.36 6 3 6 C3 6.99 3 7.98 3 9 C4.65 9 6.3 9 8 9 C8 9.33 8 9.66 8 10 C5.36 10 2.72 10 0 10 C0 6.7 0 3.4 0 0 Z " fill="#4B4E4D" transform="translate(295,292)"/>
<path d="M0 0 C3.63 0 7.26 0 11 0 C11 1.98 11 3.96 11 6 C6.80639551 5.32902328 3.59665648 3.1441606 0 1 C0 0.67 0 0.34 0 0 Z " fill="#C5C5C5" transform="translate(448,230)"/>
<path d="M0 0 C3.69230769 0.69230769 3.69230769 0.69230769 5 2 C5.04063832 3.66617115 5.042721 5.33388095 5 7 C3.125 7.625 3.125 7.625 1 8 C-1 6 -1 6 -1.1875 3.4375 C-1 1 -1 1 0 0 Z " fill="#ECEDED" transform="translate(234,293)"/>
<path d="M0 0 C3.3 0 6.6 0 10 0 C6 2 6 2 3 3 C8.28 3.33 13.56 3.66 19 4 C19 4.33 19 4.66 19 5 C16.58388629 5.24942467 14.16940879 5.47507501 11.75 5.6875 C10.72712891 5.79674805 10.72712891 5.79674805 9.68359375 5.90820312 C6.48805485 6.17191265 4.39066279 6.20331664 1.515625 4.70703125 C0 3 0 3 0 0 Z " fill="#515151" transform="translate(436,280)"/>
<path d="M0 0 C3.3 0 6.6 0 10 0 C10 1.98 10 3.96 10 6 C5.56909529 4.79157144 3.01887244 3.48331435 0 0 Z " fill="#C9C9C9" transform="translate(63,230)"/>
<path d="M0 0 C1.32 0.33 2.64 0.66 4 1 C3.67 3.97 3.34 6.94 3 10 C2.01 10 1.02 10 0 10 C0 8.68 0 7.36 0 6 C-0.66 6 -1.32 6 -2 6 C-1.34 4.02 -0.68 2.04 0 0 Z " fill="#626564" transform="translate(226,292)"/>
<path d="M0 0 C2.8992226 0.46761655 3.86675182 0.86675182 6 3 C5.34 3.66 4.68 4.32 4 5 C4 5.99 4 6.98 4 8 C0.125 7.125 0.125 7.125 -1 6 C-1.125 3.5 -1.125 3.5 -1 1 C-0.67 0.67 -0.34 0.34 0 0 Z " fill="#F0F1F0" transform="translate(195,293)"/>
<path d="M0 0 C0.99 0 1.98 0 3 0 C3 3.96 3 7.92 3 12 C2.01 12 1.02 12 0 12 C0 8.04 0 4.08 0 0 Z " fill="#BD121B" transform="translate(456,238)"/>
<path d="M0 0 C1.2065625 0.0309375 1.2065625 0.0309375 2.4375 0.0625 C-0.31384539 3.01764876 -2.95983775 5.2149809 -6.5625 7.0625 C-7.5525 7.0625 -8.5425 7.0625 -9.5625 7.0625 C-9.8925 5.7425 -10.2225 4.4225 -10.5625 3.0625 C-9.428125 2.753125 -8.29375 2.44375 -7.125 2.125 C0 0 0 0 0 0 Z " fill="#404443" transform="translate(262.5625,207.9375)"/>
<path d="M0 0 C2.97 0 5.94 0 9 0 C9 3.3 9 6.6 9 10 C7.68 9.67 6.36 9.34 5 9 C5.33 6.36 5.66 3.72 6 1 C4.35 1.66 2.7 2.32 1 3 C0.67 2.01 0.34 1.02 0 0 Z " fill="#595C5B" transform="translate(161,292)"/>
<path d="M0 0 C2.16874252 0.50603992 3.99967627 0.99983813 6 2 C6 1.34 6 0.68 6 0 C6.66 0 7.32 0 8 0 C8 2.64 8 5.28 8 8 C7.01 8 6.02 8 5 8 C5 6.68 5 5.36 5 4 C2.525 3.01 2.525 3.01 0 2 C0 1.34 0 0.68 0 0 Z " fill="#E5E5E5" transform="translate(277,293)"/>
<path d="M0 0 C4 1 4 1 5.8125 3.375 C7 6 7 6 6 9 C5.01 7.68 4.02 6.36 3 5 C3 6.65 3 8.3 3 10 C2.01 9.67 1.02 9.34 0 9 C0 6.03 0 3.06 0 0 Z " fill="#464A49" transform="translate(217,292)"/>
<path d="M0 0 C0.99 0 1.98 0 3 0 C3 2.64 3 5.28 3 8 C1.68 7.67 0.36 7.34 -1 7 C-1.04254356 5.00045254 -1.04080783 2.99958364 -1 1 C-0.67 0.67 -0.34 0.34 0 0 Z " fill="#ECEDED" transform="translate(329,293)"/>
<path d="M0 0 C1.32 0.33 2.64 0.66 4 1 C4 2.98 4 4.96 4 7 C2.68 7.33 1.36 7.66 0 8 C0 5.36 0 2.72 0 0 Z " fill="#FAFAFA" transform="translate(287,293)"/>
<path d="M0 0 C1.32 0.33 2.64 0.66 4 1 C4 2.98 4 4.96 4 7 C2.68 7.33 1.36 7.66 0 8 C0 5.36 0 2.72 0 0 Z " fill="#EEEFEF" transform="translate(257,293)"/>
<path d="M0 0 C4 1 4 1 5.25 3.0625 C5.4975 3.701875 5.745 4.34125 6 5 C6.66 4.34 7.32 3.68 8 3 C7.125 7.75 7.125 7.75 6 10 C5.34 10 4.68 10 4 10 C2.68 6.7 1.36 3.4 0 0 Z " fill="#4A4D4C" transform="translate(154,292)"/>
<path d="M0 0 C3.63 1.32 7.26 2.64 11 4 C11 4.33 11 4.66 11 5 C7.37 5 3.74 5 0 5 C0 3.35 0 1.7 0 0 Z " fill="#BFBFBF" transform="translate(445,275)"/>
<path d="M0 0 C1.32 0.33 2.64 0.66 4 1 C4 2.98 4 4.96 4 7 C2.68 7 1.36 7 0 7 C0 4.69 0 2.38 0 0 Z " fill="#FAFAFA" transform="translate(55,273)"/>
<path d="M0 0 C0.99 0 1.98 0 3 0 C3 2.64 3 5.28 3 8 C2.01 8 1.02 8 0 8 C0 5.36 0 2.72 0 0 Z " fill="#FAFAFA" transform="translate(319,293)"/>
<path d="M0 0 C2.49361571 1.20381448 4.68143083 2.45428722 7 4 C7 4.66 7 5.32 7 6 C4.03 5.505 4.03 5.505 1 5 C0.67 3.35 0.34 1.7 0 0 Z " fill="#F4F5F5" transform="translate(206,295)"/>
<path d="M0 0 C2.49361571 1.20381448 4.68143083 2.45428722 7 4 C7 4.66 7 5.32 7 6 C4.03 5.505 4.03 5.505 1 5 C0.67 3.35 0.34 1.7 0 0 Z " fill="#F4F5F5" transform="translate(169,295)"/>
<path d="M0 0 C9.59453303 2.89066059 9.59453303 2.89066059 13 6 C10.99875639 5.67421616 8.99897128 5.33944795 7 5 C6.0925 4.896875 5.185 4.79375 4.25 4.6875 C2 4 2 4 0.859375 1.95703125 C0.57578125 1.31121094 0.2921875 0.66539062 0 0 Z " fill="#172337" transform="translate(443,260)"/>
<path d="M0 0 C1.32 0 2.64 0 4 0 C4.33 1.32 4.66 2.64 5 4 C2.50907189 5.24546405 1.58919267 4.7767578 -1 4 C-0.67 2.68 -0.34 1.36 0 0 Z " fill="#CDCED1" transform="translate(444,213)"/>
<path d="M0 0 C1.98 0.495 1.98 0.495 4 1 C3.67 2.32 3.34 3.64 3 5 C1.68 4.67 0.36 4.34 -1 4 C-0.67 2.68 -0.34 1.36 0 0 Z " fill="#DFE0E0" transform="translate(146,209)"/>
<path d="M0 0 C0.99 0 1.98 0 3 0 C3.33 1.32 3.66 2.64 4 4 C2.68 4.33 1.36 4.66 0 5 C-0.5625 3.0625 -0.5625 3.0625 -1 1 C-0.67 0.67 -0.34 0.34 0 0 Z " fill="#E4E4E4" transform="translate(351,209)"/>
<path d="M0 0 C1.98 0 3.96 0 6 0 C5.34 1.32 4.68 2.64 4 4 C2.68 3.67 1.36 3.34 0 3 C0 2.01 0 1.02 0 0 Z " fill="#343837" transform="translate(242,211)"/>
<path d="M0 0 C2 3.875 2 3.875 2 5 C-0.31 5 -2.62 5 -5 5 C-3.35 3.35 -1.7 1.7 0 0 Z " fill="#F1F1F1" transform="translate(315,295)"/>
<path d="M0 0 C2.31 0 4.62 0 7 0 C6.34 1.32 5.68 2.64 5 4 C5 3.34 5 2.68 5 2 C3.35 2.33 1.7 2.66 0 3 C0 2.01 0 1.02 0 0 Z " fill="#555857" transform="translate(336,292)"/>
</svg>
