<?xml version="1.0" encoding="UTF-8"?>
<svg version="1.1" xmlns="http://www.w3.org/2000/svg" width="500" height="500">
<path d="M0 0 C165 0 330 0 500 0 C500 165 500 330 500 500 C335 500 170 500 0 500 C0 335 0 170 0 0 Z " fill="#FEFEFE" transform="translate(0,0)"/>
<path d="M0 0 C2.67049688 0.72780218 4.43799264 1.61642419 6.73608398 3.13525391 C7.50944092 3.64145264 8.28279785 4.14765137 9.07958984 4.66918945 C10.31914429 5.49930542 10.31914429 5.49930542 11.58374023 6.34619141 C12.45329346 6.92087158 13.32284668 7.49555176 14.21875 8.08764648 C17.03487558 9.95527748 19.84133147 11.83676275 22.64624023 13.72119141 C23.59499023 14.35557129 24.54374023 14.98995117 25.52124023 15.64355469 C52.90986491 33.98481608 52.90986491 33.98481608 58.64624023 39.72119141 C60.13829271 40.08846586 61.64022672 40.41617601 63.14624023 40.72119141 C67.53512912 41.6100803 67.53512912 41.6100803 68.64624023 42.72119141 C68.6900847 44.38728127 68.68591153 46.05499695 68.64624023 47.72119141 C68.64624023 48.71119141 68.64624023 49.70119141 68.64624023 50.72119141 C70.95624023 51.38119141 73.26624023 52.04119141 75.64624023 52.72119141 C74.98624023 54.04119141 74.32624023 55.36119141 73.64624023 56.72119141 C68.94440712 55.06919599 68.94440712 55.06919599 67.29077148 53.13916016 C65.71428337 51.49678803 65.71428337 51.49678803 63.33374023 51.54150391 C57.58139378 52.19365946 52.23571769 53.29664031 46.67749023 54.89697266 C28.08752799 59.95171754 8.64571918 60.86683756 -10.527771 61.01773071 C-12.50711249 61.03342072 -14.48635618 61.06019235 -16.46557617 61.0871582 C-17.68035645 61.08627197 -18.89513672 61.08538574 -20.14672852 61.08447266 C-21.76357544 61.08894409 -21.76357544 61.08894409 -23.41308594 61.09350586 C-26.79206785 60.66569785 -28.63460173 59.74475777 -31.35375977 57.72119141 C-33.35375977 54.72119141 -33.35375977 54.72119141 -33.16625977 51.15869141 C-32.35375977 47.72119141 -32.35375977 47.72119141 -29.35375977 45.72119141 C-26.85406494 45.49414062 -26.85406494 45.49414062 -23.83520508 45.52587891 C-22.13633148 45.53578857 -22.13633148 45.53578857 -20.40313721 45.54589844 C-19.1751239 45.56249512 -17.9471106 45.5790918 -16.68188477 45.59619141 C-15.41213806 45.60376465 -14.14239136 45.61133789 -12.83416748 45.61914062 C-8.07563222 45.6477156 -3.31738875 45.69365092 1.440979 45.74194336 C24.80971118 46.73782746 24.80971118 46.73782746 47.64624023 42.72119141 C49.97923849 42.68164906 52.31332212 42.67717408 54.64624023 42.72119141 C54.64624023 42.06119141 54.64624023 41.40119141 54.64624023 40.72119141 C54.13061523 40.49431641 53.61499023 40.26744141 53.08374023 40.03369141 C50.90984536 38.86313263 49.25422143 37.62306047 47.33374023 36.09619141 C43.75998749 33.47183734 41.09964197 33.1867832 36.64624023 33.72119141 C36.31624023 34.05119141 35.98624023 34.38119141 35.64624023 34.72119141 C31.58024751 35.32707542 29.4010125 34.21985389 26.14208984 31.82519531 C25.58658447 31.39899902 25.0310791 30.97280273 24.45874023 30.53369141 C23.22719385 29.62062818 21.99541051 28.70788449 20.76342773 27.79541016 C20.10568359 27.30218262 19.44793945 26.80895508 18.77026367 26.30078125 C14.91191726 23.43141329 10.99121892 20.64805794 7.08374023 17.84619141 C2.51951766 14.56850877 -2.00603802 11.2854623 -6.35375977 7.72119141 C-5.99179061 5.04261969 -5.61388701 3.11138227 -4.10375977 0.84619141 C-2.35375977 -0.27880859 -2.35375977 -0.27880859 0 0 Z " fill="#303433" transform="translate(172.353759765625,158.27880859375)"/>
<path d="M0 0 C2 3 2 3 2.04296875 5.36328125 C0.51842717 9.21745939 -2.37512476 10.93479026 -5.6875 13.1875 C-6.69103516 13.89543701 -6.69103516 13.89543701 -7.71484375 14.61767578 C-9.10975885 15.60060585 -10.5087619 16.57775801 -11.91162109 17.54931641 C-14.53360116 19.3706638 -17.12582006 21.23160482 -19.71801758 23.0949707 C-21.40249428 24.30495993 -23.09083269 25.50926628 -24.78125 26.7109375 C-26.4629285 27.90688847 -28.1398576 29.11445754 -29.73681641 30.42138672 C-34.2350387 33.99441634 -34.2350387 33.99441634 -38.2109375 34.0234375 C-39.25507813 33.80945313 -40.29921875 33.59546875 -41.375 33.375 C-45.27471144 32.86673311 -47.26566601 32.60952903 -50.76953125 34.47265625 C-53.18592929 36.38518047 -53.18592929 36.38518047 -55.29296875 38.43359375 C-57 40 -57 40 -59 40 C-59 40.66 -59 41.32 -59 42 C-57.205625 42.185625 -57.205625 42.185625 -55.375 42.375 C-52.54144718 42.68086773 -49.73892438 43.04216146 -46.92483521 43.49661255 C-38.34535749 44.87704119 -30.10589622 45.21349713 -21.4296875 45.0546875 C-20.09165909 45.04074518 -18.75361393 45.02833632 -17.41555786 45.0173645 C-11.80829012 44.96911541 -6.20149724 44.89664773 -0.59472656 44.80810547 C2.19440583 44.76491188 4.98328875 44.73239215 7.77267456 44.71121216 C10.38380659 44.69055665 12.99487217 44.65346102 15.60549927 44.59811401 C17.36916336 44.58797775 17.36916336 44.58797775 19.16845703 44.57763672 C20.71728073 44.55526443 20.71728073 44.55526443 22.2973938 44.53244019 C25.74317834 45.12857231 26.93123182 46.22196855 29 49 C29 52.5625 29 52.5625 28 56 C24.77656403 59.22343597 21.46250787 60.12565999 16.9921875 60.1328125 C16.18370361 60.13514893 15.37521973 60.13748535 14.54223633 60.13989258 C9.6943985 60.11282456 4.84747554 60.06526777 0 60 C-0.99531738 59.99274902 -1.99063477 59.98549805 -3.01611328 59.97802734 C-19.47957274 59.82092818 -34.94115918 57.54958277 -51 54 C-52.52337174 53.66766718 -54.04680138 53.33559954 -55.5703125 53.00390625 C-57.83755212 52.50927882 -60.1026299 52.00438411 -62.36328125 51.48046875 C-65.00913402 50.99833558 -67.3194962 50.76931981 -70 51 C-71.35432675 52.31200404 -72.68733482 53.64631404 -74 55 C-76.75 55.75 -76.75 55.75 -79 56 C-79.33 54.68 -79.66 53.36 -80 52 C-77.69 51.34 -75.38 50.68 -73 50 C-73 47.37886292 -73.31292445 45.49064888 -74 43 C-71.47611815 40.6780287 -70.23587703 40.01814439 -66.75 39.75 C-62.22650374 38.84530075 -60.78870026 37.27865788 -57.515625 34.19921875 C-51.8129497 29.2138054 -45.28587254 25.20603559 -39 21 C-38.14519043 20.42733398 -37.29038086 19.85466797 -36.40966797 19.26464844 C-31.90992095 16.25285908 -27.40311692 13.25238296 -22.88671875 10.265625 C-19.95698853 8.32260315 -17.05989716 6.3510008 -14.20703125 4.296875 C-13.16933594 3.55953125 -12.13164062 2.8221875 -11.0625 2.0625 C-9.78052734 1.12083984 -9.78052734 1.12083984 -8.47265625 0.16015625 C-5.20782616 -1.37168346 -3.40338913 -1.06503832 0 0 Z " fill="#303433" transform="translate(332,159)"/>
<path d="M0 0 C22 0 22 0 30 4 C34.32063892 8.43433995 36.083267 12.56022648 36.4375 18.6875 C36.33288093 24.50257668 34.25731255 29.22872527 31 34 C30.01 34.66 29.02 35.32 28 36 C29.37798126 39.87644224 31.19239726 42.87896006 33.625 46.1875 C37 50.78163265 37 50.78163265 37 53 C32.38 53 27.76 53 23 53 C21.76302083 50.49348958 20.52604167 47.98697917 19.2890625 45.48046875 C17.98133095 42.85443619 17.98133095 42.85443619 16 40 C15.01 40 14.02 40 13 40 C13 44.29 13 48.58 13 53 C8.71 53 4.42 53 0 53 C0 35.51 0 18.02 0 0 Z " fill="#074FAF" transform="translate(205,123)"/>
<path d="M0 0 C4.29 0 8.58 0 13 0 C13 5.61 13 11.22 13 17 C15.4440625 13.6278125 15.4440625 13.6278125 17.9375 10.1875 C18.45046631 9.48391357 18.96343262 8.78032715 19.49194336 8.05541992 C19.89550049 7.49443604 20.29905762 6.93345215 20.71484375 6.35546875 C21.33540649 5.49924927 21.33540649 5.49924927 21.96850586 4.62573242 C23.18088617 2.85939711 23.18088617 2.85939711 24 0 C28.95 0 33.9 0 39 0 C39 0.66 39 1.32 39 2 C37.83059996 3.1523285 36.65864977 4.30217314 35.47460938 5.43945312 C32.66953567 8.40800132 30.51127747 11.86113134 28.25 15.25 C27.27682946 16.69323985 26.30291104 18.13597579 25.328125 19.578125 C24.69245605 20.52800293 24.69245605 20.52800293 24.04394531 21.49707031 C23 23 23 23 22 24 C21.51177898 26.62174688 21.64969746 28.37992222 22.97070312 30.71826172 C24.34454222 32.67075024 25.77743114 34.55838223 27.25 36.4375 C28.23553783 37.72697667 29.21992945 39.01733026 30.203125 40.30859375 C30.67943359 40.92718262 31.15574219 41.54577148 31.64648438 42.18310547 C32.91609318 43.8873675 34.08486271 45.62350705 35.234375 47.41015625 C36.74267391 50.07429912 36.74267391 50.07429912 39 51 C39 51.66 39 52.32 39 53 C34.05 53 29.1 53 24 53 C23.29875 51.68 22.5975 50.36 21.875 49 C19.28886751 44.32421318 16.28857206 40.2063131 13 36 C13 41.61 13 47.22 13 53 C8.71 53 4.42 53 0 53 C0 35.51 0 18.02 0 0 Z " fill="#054EAE" transform="translate(256,123)"/>
<path d="M0 0 C8.14583333 -0.47916667 8.14583333 -0.47916667 11.5625 1.4375 C13.7145847 5.27382489 13.74831272 8.70704811 13 13 C11.5625 15.5625 11.5625 15.5625 9 17 C5.91796887 17.31297734 3.11460416 17.18321201 0 17 C0 11.39 0 5.78 0 0 Z " fill="#FBFCFD" transform="translate(217,134)"/>
<path d="M0 0 C1.2065625 0.0309375 1.2065625 0.0309375 2.4375 0.0625 C-0.31384539 3.01764876 -2.95983775 5.2149809 -6.5625 7.0625 C-7.5525 7.0625 -8.5425 7.0625 -9.5625 7.0625 C-9.8925 5.7425 -10.2225 4.4225 -10.5625 3.0625 C-9.428125 2.753125 -8.29375 2.44375 -7.125 2.125 C0 0 0 0 0 0 Z " fill="#404443" transform="translate(262.5625,207.9375)"/>
<path d="M0 0 C0.99 0 1.98 0 3 0 C3.33 1.32 3.66 2.64 4 4 C2.68 4.33 1.36 4.66 0 5 C-0.5625 3.0625 -0.5625 3.0625 -1 1 C-0.67 0.67 -0.34 0.34 0 0 Z " fill="#E3E3E3" transform="translate(351,209)"/>
<path d="M0 0 C1.98 0.495 1.98 0.495 4 1 C3.67 2.32 3.34 3.64 3 5 C1.68 4.67 0.36 4.34 -1 4 C-0.67 2.68 -0.34 1.36 0 0 Z " fill="#E4E4E4" transform="translate(146,209)"/>
<path d="M0 0 C1.98 0 3.96 0 6 0 C5.34 1.32 4.68 2.64 4 4 C2.68 3.67 1.36 3.34 0 3 C0 2.01 0 1.02 0 0 Z " fill="#343737" transform="translate(242,211)"/>
</svg>
